<svg xmlns="http://www.w3.org/2000/svg" version="1.1" xmlns:xlink="http://www.w3.org/1999/xlink" width="200" height="200"><svg xmlns="http://www.w3.org/2000/svg" version="1.1" xmlns:xlink="http://www.w3.org/1999/xlink" viewBox="0 0 200 200"><rect width="200" height="200" fill="url('#gradient')"></rect><defs><linearGradient id="SvgjsLinearGradient1001" gradientTransform="rotate(45 0.5 0.5)"><stop offset="0%" stop-color="#ced0cf"></stop><stop offset="100%" stop-color="#bae8f7"></stop></linearGradient></defs><g><g fill="#efefef" transform="matrix(7.075623800383877,0,0,7.075623800383877,4.337056711516325,150.31194094732948)" stroke="#4682db" stroke-width="0.6"><path d="M12.71-7.60L12.71-1.76Q11.92-0.88 10.40-0.34Q8.88 0.20 7.06 0.20L7.06 0.20Q4.27 0.20 2.60-1.51Q0.93-3.22 0.81-6.27L0.81-6.27L0.80-7.50Q0.80-9.60 1.54-11.17Q2.29-12.73 3.67-13.58Q5.05-14.42 6.87-14.42L6.87-14.42Q9.52-14.42 10.99-13.21Q12.46-11.99 12.71-9.58L12.71-9.58L9.40-9.58Q9.23-10.77 8.64-11.28Q8.06-11.79 6.98-11.79L6.98-11.79Q5.69-11.79 4.99-10.69Q4.29-9.60 4.28-7.57L4.28-7.57L4.28-6.71Q4.28-4.58 5.00-3.51Q5.73-2.44 7.29-2.44L7.29-2.44Q8.63-2.44 9.29-3.04L9.29-3.04L9.29-5.24L6.90-5.24L6.90-7.60L12.71-7.60ZM22.80-4.81L26.21-4.81Q26.14-3.33 25.41-2.19Q24.68-1.05 23.35-0.43Q22.03 0.20 20.33 0.20L20.33 0.20Q17.53 0.20 15.92-1.63Q14.31-3.46 14.31-6.79L14.31-6.79L14.31-7.49Q14.31-9.58 15.03-11.15Q15.76-12.71 17.13-13.57Q18.50-14.42 20.29-14.42L20.29-14.42Q22.88-14.42 24.45-13.06Q26.03-11.70 26.24-9.31L26.24-9.31L22.82-9.31Q22.78-10.61 22.17-11.17Q21.55-11.74 20.29-11.74L20.29-11.74Q19.01-11.74 18.42-10.78Q17.82-9.82 17.79-7.72L17.79-7.72L17.79-6.72Q17.79-4.44 18.36-3.47Q18.94-2.49 20.33-2.49L20.33-2.49Q21.51-2.49 22.14-3.05Q22.76-3.60 22.80-4.81L22.80-4.81Z"></path></g></g></svg><style>@media (prefers-color-scheme: light) { :root { filter: contrast(1) brightness(1); } }
@media (prefers-color-scheme: dark) { :root { filter: none; } }
</style></svg>